<?xml version="1.0" encoding="UTF-8" standalone="no"?>
<svg
   xmlns:dc="http://purl.org/dc/elements/1.1/"
   xmlns:cc="http://creativecommons.org/ns#"
   xmlns:rdf="http://www.w3.org/1999/02/22-rdf-syntax-ns#"
   xmlns:svg="http://www.w3.org/2000/svg"
   xmlns="http://www.w3.org/2000/svg"
   viewBox="0 0 500 500"
   height="500"
   width="500"
   xml:space="preserve"
   id="svg2"
   version="1.1"><metadata
     id="metadata8"><rdf:RDF><cc:Work
         rdf:about=""><dc:format>image/svg+xml</dc:format><dc:type
           rdf:resource="http://purl.org/dc/dcmitype/StillImage" /></cc:Work></rdf:RDF></metadata><defs
     id="defs6"><clipPath
       id="clipPath14"
       clipPathUnits="userSpaceOnUse"><path
         id="path12"
         d="M 0,8.039989 H 375 V 383.03998 H 0 Z" /></clipPath><clipPath
       id="clipPath24"
       clipPathUnits="userSpaceOnUse"><path
         style="clip-rule:evenodd"
         id="path22"
         d="M 0,0 H 1562.5 V 1562.5 H 0 Z" /></clipPath><clipPath
       id="clipPath36"
       clipPathUnits="userSpaceOnUse"><path
         style="clip-rule:evenodd"
         id="path34"
         d="M 0,0 H 1562.5 V 1562.5 H 0 Z" /></clipPath><clipPath
       id="clipPath48"
       clipPathUnits="userSpaceOnUse"><path
         style="clip-rule:evenodd"
         id="path46"
         d="M 730.34155,337.73172 H 1465.9026 V 1225.2317 H 730.34155 Z" /></clipPath><clipPath
       id="clipPath60"
       clipPathUnits="userSpaceOnUse"><path
         style="clip-rule:evenodd"
         id="path58"
         d="M 94.637161,337.73172 H 738.38716 V 1225.2317 H 94.637161 Z" /></clipPath></defs><g
     clip-path="url(#clipPath14)"
     transform="matrix(1.3333333,0,0,-1.3333333,0,510.71997)"
     id="g10"><g
       transform="matrix(0.23999999,0,0,-0.23999999,0,383.03998)"
       id="g16"><g
         id="g18"><g
           clip-path="url(#clipPath24)"
           id="g20"><g
             transform="scale(3.125)"
             id="g26"><path
               id="path28"
               style="fill:#ffffff;fill-opacity:1;fill-rule:nonzero;stroke:none"
               d="M 0,0 H 500 V 500 H 0 Z" /></g></g></g><g
         id="g30"><g
           clip-path="url(#clipPath36)"
           id="g32"><g
             transform="scale(3.125)"
             id="g38"><path
               id="path40"
               style="fill:#ffffff;fill-opacity:1;fill-rule:nonzero;stroke:none"
               d="M 0,0 H 500 V 500 H 0 Z" /></g></g></g><g
         id="g42"><g
           clip-path="url(#clipPath48)"
           id="g44"><g
             transform="matrix(1.291906,0,0,1.2938594,-512.65149,-511.86008)"
             id="g50"><path
               id="path52"
               style="fill:#000000;fill-opacity:1;fill-rule:nonzero;stroke:none"
               d="m 894.37109,660.78906 -166.3789,1.65235 -258.35156,679.96879 181.48828,-1.8516 43.26562,-120.457 49.30078,-145.6407 51.08594,-143.33199 39.55859,-122.11719 h 130.66407 z m 510.60941,316.58985 c 54.9297,-26.5 95.4179,-73.01953 94.6211,-150.86719 v -1.92188 c -0.461,-46.12109 -15.9727,-81.51171 -41.1524,-108.14062 -36.8398,-39.02734 -92.2304,-59.64063 -170.5508,-58.83984 l -319.44527,3.17968 70.10547,148.22266 h 99.5898 l 112.1133,-1.12109 c 51.6172,-0.53125 78.5196,20.33984 78.8477,56.84765 l 0.07,1.92188 c 0.3984,39.42968 -28.8203,58.91015 -81.3008,59.4414 l -63.4805,0.58985 -45.0586,0.46875 h -44.9179 l 61.4883,129.92964 116.4179,-0.5898 c 57.8438,-0.5312 84.75,23.1914 85.1407,59.6992 v 1.9219 c 0.4023,39.3594 -29.6172,61.7578 -82.1602,62.2891 l -60.8867,0.3906 70.6289,149.418 11.3984,-0.129 c 148.5508,-1.4609 235.0899,-72.4882 233.9024,-187.7812 v -1.918 c -0.9297,-91.25 -49.4297,-136.9023 -125.3711,-163.01169" /></g></g></g><g
         id="g54"><g
           clip-path="url(#clipPath60)"
           id="g56"><g
             transform="matrix(1.2931476,0,0,1.2931476,-512.62494,-511.39261)"
             id="g62"><path
               id="path64"
               style="fill:#00bf63;fill-opacity:1;fill-rule:nonzero;stroke:none"
               d="m 894.37109,660.78906 -166.3789,1.65235 -258.35156,679.96879 181.48828,-1.8516 43.26562,-120.457 49.30078,-145.6407 51.08594,-143.33199 39.55859,-122.11719 h 130.66407 z m 510.60941,316.58985 c 54.9297,-26.5 95.4179,-73.01953 94.6211,-150.86719 v -1.92188 c -0.461,-46.12109 -15.9727,-81.51171 -41.1524,-108.14062 -36.8398,-39.02734 -92.2304,-59.64063 -170.5508,-58.83984 l -319.44527,3.17968 70.10547,148.22266 h 99.5898 l 112.1133,-1.12109 c 51.6172,-0.53125 78.5196,20.33984 78.8477,56.84765 l 0.07,1.92188 c 0.3984,39.42968 -28.8203,58.91015 -81.3008,59.4414 l -63.4805,0.58985 -45.0586,0.46875 h -44.9179 l 61.4883,129.92964 116.4179,-0.5898 c 57.8438,-0.5312 84.75,23.1914 85.1407,59.6992 v 1.9219 c 0.4023,39.3594 -29.6172,61.7578 -82.1602,62.2891 l -60.8867,0.3906 70.6289,149.418 11.3984,-0.129 c 148.5508,-1.4609 235.0899,-72.4882 233.9024,-187.7812 v -1.918 c -0.9297,-91.25 -49.4297,-136.9023 -125.3711,-163.01169" /></g></g></g></g><path
       id="path66"
       style="fill:#000000;fill-opacity:0;fill-rule:nonzero;stroke:none"
       d="M 175.28197,89.095604 H 352.28708 V 301.98438 H 175.28197 Z" /><path
       id="path68"
       style="fill:#000000;fill-opacity:0;fill-rule:nonzero;stroke:none"
       d="M 22.71292,89.095604 H 177.39664 V 301.98438 H 22.71292 Z" /></g></svg>